<svg width="224" height="71" viewBox="0 0 224 71" fill="none" xmlns="http://www.w3.org/2000/svg">
<path d="M5.66228 23.5L0.5 6.5H5.23786L7.91427 17.6396H8.06152L11.119 6.5H14.9821L18.0396 17.6646H18.1869L20.8719 6.5H25.6011L20.4475 23.5H16.316L13.1199 13.1904H12.9813L9.78517 23.5H5.66228Z" fill="#191821"/>
<path d="M29.2801 23.5H24.6722L30.6573 6.5H36.3653L42.3504 23.5H37.7424L33.5762 10.7832H33.4377L29.2801 23.5ZM28.6651 16.8096H38.2968V19.9307H28.6651V16.8096Z" fill="#191821"/>
<path d="M44.2602 23.5V6.5H48.5477V20.1631H55.9273V23.5H44.2602Z" fill="#191821"/>
<path d="M58.1469 23.5V6.5H62.4343V20.1631H69.8139V23.5H58.1469Z" fill="#191821"/>
<path d="M72.0335 23.5V6.5H84.4021V9.83691H76.3209V13.3232H83.7698V16.6685H76.3209V20.1631H84.4021V23.5H72.0335Z" fill="#191821"/>
<path d="M86.5069 9.83691V6.5H101.5V9.83691H96.1212V23.5H91.8944V9.83691H86.5069Z" fill="#191821"/>
<path d="M107.5 5C107.5 2.23858 109.739 0 112.5 0H208.5C216.784 0 223.5 6.71573 223.5 15C223.5 23.2843 216.784 30 208.5 30H112.5C109.739 30 107.5 27.7614 107.5 25V5Z" fill="#2D2C35"/>
<path d="M123.428 21.2685C122.437 21.2685 121.521 21.0881 120.679 20.7272C119.849 20.3663 119.119 19.8636 118.487 19.2191C117.856 18.5746 117.367 17.8271 117.02 16.9764C116.673 16.1128 116.5 15.1847 116.5 14.1923C116.5 13.1869 116.673 12.2589 117.02 11.4082C117.367 10.5575 117.85 9.81633 118.469 9.18475C119.088 8.54028 119.812 8.04404 120.642 7.69602C121.484 7.33512 122.4 7.15467 123.391 7.15467C124.369 7.15467 125.273 7.33512 126.102 7.69602C126.944 8.04404 127.675 8.54028 128.294 9.18475C128.926 9.81633 129.415 10.5639 129.761 11.4275C130.108 12.2782 130.282 13.2062 130.282 14.2116C130.282 15.2041 130.108 16.1321 129.761 16.9957C129.415 17.8464 128.932 18.594 128.313 19.2385C127.694 19.87 126.963 20.3663 126.121 20.7272C125.291 21.0881 124.394 21.2685 123.428 21.2685ZM123.391 18.5038C124.171 18.5038 124.852 18.3233 125.434 17.9624C126.028 17.6015 126.486 17.0988 126.808 16.4543C127.13 15.797 127.291 15.043 127.291 14.1923C127.291 13.5478 127.198 12.9678 127.013 12.4522C126.827 11.9237 126.561 11.4726 126.214 11.0988C125.867 10.7121 125.452 10.4221 124.97 10.2288C124.499 10.0226 123.973 9.91944 123.391 9.91944C122.611 9.91944 121.923 10.0999 121.329 10.4608C120.747 10.8088 120.295 11.305 119.973 11.9495C119.651 12.5811 119.49 13.3287 119.49 14.1923C119.49 14.8367 119.583 15.4232 119.769 15.9517C119.955 16.4801 120.215 16.9377 120.549 17.3244C120.896 17.6982 121.311 17.9882 121.793 18.1944C122.276 18.4006 122.809 18.5038 123.391 18.5038Z" fill="white"/>
<path d="M137.073 21.2299C136.466 21.2299 135.909 21.1074 135.402 20.8625C134.894 20.6176 134.479 20.2825 134.157 19.8571C133.835 19.4189 133.649 18.9227 133.6 18.3684V14.4049C133.649 13.8507 133.835 13.348 134.157 12.8969C134.479 12.4458 134.894 12.0913 135.402 11.8335C135.909 11.5757 136.466 11.4468 137.073 11.4468C137.928 11.4468 138.683 11.6595 139.339 12.0849C140.008 12.5102 140.528 13.0902 140.899 13.8249C141.283 14.5596 141.475 15.3974 141.475 16.3383C141.475 17.2793 141.283 18.1171 140.899 18.8518C140.528 19.5865 140.008 20.1665 139.339 20.5918C138.683 21.0172 137.928 21.2299 137.073 21.2299ZM136.553 18.5618C136.962 18.5618 137.315 18.4651 137.612 18.2718C137.921 18.0784 138.163 17.8142 138.336 17.4791C138.51 17.1439 138.596 16.7637 138.596 16.3383C138.596 15.9001 138.51 15.5134 138.336 15.1783C138.163 14.8432 137.921 14.5854 137.612 14.4049C137.315 14.2116 136.968 14.1149 136.572 14.1149C136.175 14.1149 135.823 14.2116 135.513 14.4049C135.216 14.5854 134.981 14.8432 134.807 15.1783C134.634 15.5134 134.547 15.9001 134.547 16.3383C134.547 16.7637 134.628 17.1439 134.789 17.4791C134.962 17.8142 135.203 18.0784 135.513 18.2718C135.823 18.4651 136.169 18.5618 136.553 18.5618ZM131.873 25V18.3201V14.9801V12.8772L131.028 11.6402H133.293H134.714V14.0569L134.25 16.3383L134.677 18.6198V25H131.873Z" fill="white"/>
<path d="M147.376 21.2492C146.398 21.2492 145.525 21.043 144.758 20.6305C144.002 20.2052 143.408 19.6187 142.974 18.8711C142.541 18.1235 142.324 17.2793 142.324 16.3383C142.324 15.3974 142.535 14.5596 142.956 13.8249C143.389 13.0773 143.971 12.4909 144.702 12.0655C145.432 11.6402 146.256 11.4275 147.172 11.4275C148.064 11.4275 148.85 11.6273 149.531 12.0269C150.212 12.4264 150.744 12.9807 151.128 13.6896C151.524 14.3985 151.723 15.2105 151.723 16.1257C151.723 16.2932 151.71 16.4737 151.685 16.667C151.673 16.8475 151.642 17.0602 151.593 17.305L143.81 17.3244V15.2943L150.385 15.275L149.159 16.1257C149.147 15.5843 149.067 15.1396 148.918 14.7916C148.769 14.4307 148.547 14.16 148.249 13.9796C147.965 13.7863 147.612 13.6896 147.191 13.6896C146.745 13.6896 146.355 13.7991 146.021 14.0183C145.699 14.2245 145.445 14.5209 145.259 14.9076C145.086 15.2943 144.999 15.7648 144.999 16.319C144.999 16.8733 145.092 17.3502 145.278 17.7497C145.476 18.1364 145.748 18.4393 146.095 18.6584C146.454 18.8647 146.875 18.9678 147.358 18.9678C147.804 18.9678 148.206 18.8904 148.565 18.7358C148.924 18.5682 149.24 18.3233 149.512 18.0011L151.072 19.6251C150.627 20.1665 150.088 20.5725 149.457 20.8432C148.825 21.1139 148.132 21.2492 147.376 21.2492Z" fill="white"/>
<path d="M159.056 21.0365V15.681C159.056 15.1912 158.908 14.7981 158.611 14.5016C158.326 14.1923 157.96 14.0376 157.515 14.0376C157.205 14.0376 156.933 14.1085 156.698 14.2503C156.462 14.3792 156.277 14.5725 156.14 14.8303C156.004 15.0752 155.936 15.3588 155.936 15.681L154.84 15.1203C154.84 14.3856 154.995 13.7411 155.304 13.1869C155.614 12.6327 156.041 12.2073 156.586 11.9108C157.143 11.6015 157.769 11.4468 158.462 11.4468C159.131 11.4468 159.719 11.6144 160.226 11.9495C160.747 12.2718 161.155 12.7035 161.452 13.2449C161.749 13.7863 161.898 14.3792 161.898 15.0236V21.0365H159.056ZM153.094 21.0365V16.3383V13.9893V12.8788L152.25 11.6402H155.936V21.0365H153.094Z" fill="white"/>
<path d="M166.212 21.0365V18.6778H169.295C169.865 18.6778 170.311 18.5038 170.633 18.1557C170.954 17.8077 171.115 17.3824 171.115 16.8797C171.115 16.5317 171.041 16.2223 170.893 15.9517C170.744 15.681 170.533 15.4683 170.261 15.3136C170.001 15.159 169.679 15.0816 169.295 15.0816H166.212V12.7809H169.054C169.537 12.7809 169.927 12.6584 170.224 12.4135C170.521 12.1557 170.67 11.7691 170.67 11.2535C170.67 10.7508 170.521 10.377 170.224 10.1321C169.927 9.87433 169.537 9.74543 169.054 9.74543H166.212V7.38668H169.611C170.453 7.38668 171.165 7.5478 171.747 7.87003C172.341 8.19227 172.793 8.62406 173.103 9.16541C173.412 9.70677 173.567 10.3061 173.567 10.9635C173.567 11.8013 173.307 12.5102 172.787 13.0902C172.267 13.6702 171.499 14.0698 170.484 14.2889L170.558 13.2642C171.66 13.4834 172.508 13.928 173.103 14.5983C173.71 15.2685 174.013 16.0934 174.013 17.073C174.013 17.8206 173.833 18.4973 173.474 19.1031C173.128 19.696 172.62 20.1665 171.951 20.5145C171.295 20.8625 170.503 21.0365 169.574 21.0365H166.212ZM163.983 21.0365V14.2116V10.7991V8.62213L163.139 7.38668H166.862V21.0365H163.983Z" fill="white"/>
<path d="M175.622 21.0365V7H178.464V21.0365H175.622Z" fill="white"/>
<path d="M184.811 21.2492C183.882 21.2492 183.04 21.0365 182.285 20.6112C181.542 20.1729 180.954 19.58 180.52 18.8324C180.087 18.0849 179.87 17.247 179.87 16.319C179.87 15.391 180.087 14.5596 180.52 13.8249C180.954 13.0902 181.542 12.5102 182.285 12.0849C183.028 11.6466 183.87 11.4275 184.811 11.4275C185.752 11.4275 186.594 11.6402 187.337 12.0655C188.08 12.4909 188.668 13.0773 189.101 13.8249C189.535 14.5596 189.751 15.391 189.751 16.319C189.751 17.247 189.535 18.0849 189.101 18.8324C188.668 19.58 188.08 20.1729 187.337 20.6112C186.594 21.0365 185.752 21.2492 184.811 21.2492ZM184.811 18.5618C185.22 18.5618 185.579 18.4715 185.888 18.2911C186.198 18.0977 186.433 17.8335 186.594 17.4984C186.767 17.1504 186.854 16.7572 186.854 16.319C186.854 15.8808 186.767 15.5005 186.594 15.1783C186.421 14.8432 186.179 14.5854 185.87 14.4049C185.572 14.2116 185.22 14.1149 184.811 14.1149C184.415 14.1149 184.062 14.2116 183.752 14.4049C183.443 14.5854 183.201 14.8432 183.028 15.1783C182.855 15.5134 182.768 15.9001 182.768 16.3383C182.768 16.7637 182.855 17.1504 183.028 17.4984C183.201 17.8335 183.443 18.0977 183.752 18.2911C184.062 18.4715 184.415 18.5618 184.811 18.5618Z" fill="white"/>
<path d="M195.531 21.2492C194.602 21.2492 193.76 21.0365 193.005 20.6112C192.25 20.1858 191.655 19.5994 191.222 18.8518C190.789 18.1042 190.572 17.2664 190.572 16.3383C190.572 15.3974 190.789 14.5596 191.222 13.8249C191.668 13.0773 192.268 12.4909 193.024 12.0655C193.779 11.6402 194.627 11.4275 195.568 11.4275C196.274 11.4275 196.918 11.5564 197.5 11.8142C198.094 12.0591 198.62 12.4329 199.079 12.9356L197.258 14.8303C197.048 14.5854 196.8 14.4049 196.515 14.2889C196.243 14.1729 195.927 14.1149 195.568 14.1149C195.16 14.1149 194.794 14.2116 194.472 14.4049C194.163 14.5854 193.915 14.8432 193.729 15.1783C193.556 15.5005 193.469 15.8808 193.469 16.319C193.469 16.7572 193.556 17.1439 193.729 17.4791C193.915 17.8142 194.169 18.0784 194.491 18.2718C194.813 18.4651 195.172 18.5618 195.568 18.5618C195.94 18.5618 196.268 18.4973 196.553 18.3684C196.85 18.2266 197.104 18.0333 197.314 17.7884L199.116 19.6831C198.645 20.1987 198.113 20.5918 197.518 20.8625C196.924 21.1203 196.262 21.2492 195.531 21.2492Z" fill="white"/>
<path d="M206.157 21.0365L202.999 16.1643L206.138 11.6402H209.314L205.525 16.725L205.618 15.507L209.5 21.0365H206.157ZM200.38 21.0365V7H203.222V21.0365H200.38Z" fill="white"/>
<path fill-rule="evenodd" clip-rule="evenodd" d="M1 71V40H13.4779C15.8019 40 17.839 40.4131 19.5577 41.2774C21.28 42.1291 22.6124 43.3527 23.5256 44.9459C24.4461 46.5255 24.8905 48.3597 24.8905 50.4185C24.8905 52.4883 24.4405 54.3188 23.5035 55.8754L23.5022 55.8775C22.6639 57.2606 21.4914 58.3478 20.0088 59.1408L26.522 71H17.7059L12.1219 60.6079H8.92688V71H1ZM8.07987 59.7656H12.6296L18.2137 70.1577H25.0943L18.8395 58.7689C18.9294 58.7301 19.0183 58.6902 19.1062 58.6491C19.276 58.5702 19.4415 58.4877 19.6028 58.4016C20.9638 57.6746 22.0218 56.6884 22.7768 55.4427C23.6213 54.04 24.0435 52.3652 24.0435 50.4185C24.0435 48.4813 23.6261 46.797 22.7912 45.3656C21.9659 43.9246 20.7615 42.8129 19.1781 42.0303C17.6043 41.2383 15.7042 40.8423 13.4779 40.8423H1.847V70.1577H8.07987V59.7656ZM12.3119 54.7843C13.5018 54.7843 14.4903 54.6221 15.2772 54.2976C16.0641 53.9732 16.6495 53.4865 17.0333 52.8376C17.4268 52.1887 17.6235 51.3823 17.6235 50.4185C17.6235 49.4451 17.4268 48.6244 17.0333 47.9564C16.6495 47.2884 16.0593 46.7827 15.2628 46.4391C14.4759 46.086 13.4827 45.9095 12.2831 45.9095H8.07987V54.7843H12.3119ZM8.92688 53.942H12.3119C13.4316 53.942 14.3008 53.7884 14.9528 53.5196C15.592 53.256 16.0242 52.8822 16.3033 52.4105L16.3056 52.4066L16.308 52.4027C16.6029 51.9162 16.7765 51.2701 16.7765 50.4185C16.7765 49.5567 16.6026 48.8917 16.3025 48.3821L16.3002 48.3782L16.2979 48.3743C16.0158 47.8834 15.5759 47.4923 14.9257 47.2118L14.9201 47.2094L14.9144 47.2069C14.2709 46.9181 13.4063 46.7518 12.2831 46.7518H8.92688V53.942ZM27.6012 71V40H49.1598V46.7947H35.5281V52.0955H48.1378V58.8902H35.5281V64.2053H49.2174V71H27.6012ZM34.6811 65.0476V58.0479H47.2908V52.9378H34.6811V45.9524H48.3128V40.8423H28.4483V70.1577H48.3704V65.0476H34.6811ZM52.4212 71V40H63.805C66.8825 40 69.5816 40.6095 71.8708 41.8647C74.1588 43.1098 75.9223 44.9061 77.1497 47.2346C78.3882 49.566 78.9891 52.3218 78.9891 55.4714C78.9891 58.6302 78.3883 61.3952 77.1503 63.7356C75.9224 66.0751 74.1487 67.881 71.8419 69.1354C69.5426 70.3909 66.8241 71 63.7187 71H52.4212ZM71.4342 68.3971C73.5934 67.2233 75.2487 65.539 76.4003 63.3442C77.5615 61.1493 78.1421 58.5251 78.1421 55.4714C78.1421 52.4272 77.5615 49.8125 76.4003 47.6272C75.2487 45.4419 73.603 43.7671 71.463 42.6029C69.323 41.4292 66.7703 40.8423 63.805 40.8423H53.2682V70.1577H63.7187C66.7127 70.1577 69.2846 69.5708 71.4342 68.3971ZM70.1892 60.4739L70.1903 60.4716C70.7645 59.2359 71.0766 57.5837 71.0766 55.4714C71.0766 53.379 70.7647 51.7418 70.1912 50.5161L70.1892 50.5117C69.6283 49.2948 68.8102 48.4297 67.7332 47.8738C66.6274 47.303 65.2201 46.9951 63.474 46.9951H60.348V64.0049H63.4596C65.2053 64.0049 66.6123 63.6972 67.718 63.1266C68.8066 62.5604 69.629 61.6893 70.1892 60.4739ZM68.109 63.8738C66.8519 64.5227 65.3021 64.8472 63.4596 64.8472H59.501V46.1528H63.474C65.3165 46.1528 66.8663 46.4773 68.1234 47.1262C69.3805 47.7751 70.3258 48.7866 70.9592 50.1608C71.6021 51.535 71.9236 53.3052 71.9236 55.4714C71.9236 57.6567 71.6021 59.4412 70.9592 60.8249C70.3258 62.199 69.3757 63.2153 68.109 63.8738ZM81.9121 71V40H103.471V46.7947H89.839V52.0955H102.449V58.8902H89.839V64.2053H103.528V71H81.9121ZM88.992 65.0476V58.0479H101.602V52.9378H88.992V45.9524H102.624V40.8423H82.7591V70.1577H102.681V65.0476H88.992ZM106.732 71V40H127.945V46.7947H114.659V52.0955H126.65V58.8902H114.659V71H106.732ZM113.812 58.0479H125.803V52.9378H113.812V45.9524H127.098V40.8423H107.579V70.1577H113.812V58.0479ZM138.37 40V71H130.444V40H138.37ZM168.157 40V71H161.482L149.731 54.0959V71H141.805V40H148.567L160.258 56.9387V40H168.157ZM161.105 59.2789H160.846L148.121 40.8423H142.652V70.1577H148.884V51.7067H149.1L161.926 70.1577H167.31V40.8423H161.105V59.2789ZM171.612 71V40H193.171V46.7947H179.539V52.0955H192.149V58.8902H179.539V64.2053H193.228V71H171.612ZM178.692 65.0476V58.0479H191.302V52.9378H178.692V45.9524H192.324V40.8423H172.459V70.1577H192.381V65.0476H178.692ZM196.432 71V40H207.816C210.893 40 213.593 40.6095 215.882 41.8647C218.17 43.1098 219.933 44.9061 221.161 47.2346C222.399 49.566 223 52.3218 223 55.4714C223 58.6306 222.399 61.3957 221.161 63.7363C219.933 66.0755 218.159 67.8811 215.853 69.1354C213.553 70.3909 210.835 71 207.73 71H196.432ZM215.445 68.3971C217.604 67.2233 219.26 65.539 220.411 63.3442C221.572 61.1493 222.153 58.5251 222.153 55.4714C222.153 52.4272 221.572 49.8125 220.411 47.6272C219.26 45.4419 217.614 43.7671 215.474 42.6029C213.334 41.4292 210.781 40.8423 207.816 40.8423H197.279V70.1577H207.73C210.724 70.1577 213.296 69.5708 215.445 68.3971ZM214.2 60.4739L214.201 60.4716C214.775 59.2359 215.088 57.5837 215.088 55.4714C215.088 53.379 214.776 51.7418 214.202 50.5161L214.2 50.5117C213.639 49.2948 212.821 48.4297 211.744 47.8738C210.638 47.303 209.231 46.9951 207.485 46.9951H204.359V64.0049H207.47C209.217 64.0049 210.624 63.697 211.73 63.1262C212.818 62.56 213.64 61.689 214.2 60.4739ZM212.12 63.8738C210.863 64.5227 209.313 64.8472 207.47 64.8472H203.512V46.1528H207.485C209.327 46.1528 210.877 46.4773 212.134 47.1262C213.391 47.7751 214.337 48.7866 214.97 50.1608C215.613 51.535 215.935 53.3052 215.935 55.4714C215.935 57.6567 215.613 59.4412 214.97 60.8249C214.337 62.199 213.387 63.2153 212.12 63.8738ZM137.523 40.8423H131.291V70.1577H137.523V40.8423Z" fill="#191821"/>
</svg>
