<svg width="18" height="14" viewBox="0 0 18 14" fill="none" xmlns="http://www.w3.org/2000/svg">
<path d="M17.0302 2.02023C16.4286 2.28636 15.7905 2.46114 15.1373 2.53879C15.8258 2.12697 16.3412 1.47883 16.5873 0.715174C15.9411 1.09976 15.2326 1.36928 14.4942 1.51507C13.9982 0.984365 13.3407 0.632397 12.624 0.513886C11.9073 0.395376 11.1716 0.516965 10.5311 0.85975C9.89069 1.20253 9.38143 1.74731 9.08253 2.40938C8.78363 3.07145 8.71184 3.81373 8.87833 4.52081C7.56784 4.45513 6.28581 4.11457 5.11547 3.52126C3.94514 2.92795 2.91267 2.09514 2.08508 1.0769C1.79214 1.58005 1.63821 2.15202 1.63903 2.73423C1.63903 3.87695 2.22063 4.88648 3.10486 5.47754C2.58158 5.46106 2.06982 5.31975 1.61223 5.06537V5.10635C1.61239 5.8674 1.87574 6.60498 2.35764 7.19402C2.83953 7.78307 3.51031 8.18733 4.25624 8.33827C3.77048 8.46991 3.26114 8.48931 2.76677 8.39501C2.97708 9.05009 3.38699 9.62299 3.93911 10.0335C4.49123 10.444 5.1579 10.6716 5.8458 10.6844C5.16212 11.2213 4.37932 11.6182 3.54215 11.8524C2.70497 12.0867 1.82984 12.1536 0.966797 12.0493C2.47337 13.0182 4.22716 13.5326 6.01839 13.5309C12.0811 13.5309 15.3965 8.50849 15.3965 4.15278C15.3965 4.01092 15.3926 3.86749 15.3863 3.72721C16.0316 3.2608 16.5886 2.68302 17.031 2.02102L17.0302 2.02023Z" fill="white"/>
</svg>
