<svg width="350" height="423" viewBox="0 0 350 423" fill="none" xmlns="http://www.w3.org/2000/svg">
<rect y="0.384766" width="350" height="422" rx="16" fill="#2D2C35"/>
<path d="M120.122 339.857C121.146 339.003 121.962 338.294 122.57 337.729C123.178 337.153 123.685 336.555 124.09 335.937C124.496 335.318 124.698 334.71 124.698 334.113C124.698 333.569 124.57 333.142 124.314 332.833C124.058 332.523 123.664 332.369 123.13 332.369C122.597 332.369 122.186 332.55 121.898 332.913C121.61 333.265 121.461 333.75 121.45 334.369H119.274C119.317 333.089 119.696 332.118 120.41 331.457C121.136 330.795 122.053 330.465 123.162 330.465C124.378 330.465 125.312 330.79 125.962 331.441C126.613 332.081 126.938 332.929 126.938 333.985C126.938 334.817 126.714 335.611 126.266 336.369C125.818 337.126 125.306 337.787 124.73 338.353C124.154 338.907 123.402 339.579 122.474 340.369H127.194V342.225H119.29V340.561L120.122 339.857ZM135.678 335.729V337.617H128.894V335.729H135.678ZM137.966 333.793C138.019 332.726 138.393 331.905 139.086 331.329C139.79 330.742 140.713 330.449 141.854 330.449C142.633 330.449 143.299 330.587 143.854 330.865C144.409 331.131 144.825 331.499 145.102 331.969C145.39 332.427 145.534 332.95 145.534 333.537C145.534 334.209 145.358 334.779 145.006 335.249C144.665 335.707 144.254 336.017 143.774 336.177V336.241C144.393 336.433 144.873 336.774 145.214 337.265C145.566 337.755 145.742 338.385 145.742 339.153C145.742 339.793 145.593 340.363 145.294 340.865C145.006 341.366 144.574 341.761 143.998 342.049C143.433 342.326 142.75 342.465 141.95 342.465C140.745 342.465 139.763 342.161 139.006 341.553C138.249 340.945 137.849 340.049 137.806 338.865H139.982C140.003 339.387 140.179 339.809 140.51 340.129C140.851 340.438 141.315 340.593 141.902 340.593C142.446 340.593 142.862 340.443 143.15 340.145C143.449 339.835 143.598 339.441 143.598 338.961C143.598 338.321 143.395 337.862 142.99 337.585C142.585 337.307 141.955 337.169 141.102 337.169H140.638V335.329H141.102C142.617 335.329 143.374 334.822 143.374 333.809C143.374 333.35 143.235 332.993 142.958 332.737C142.691 332.481 142.302 332.353 141.79 332.353C141.289 332.353 140.899 332.491 140.622 332.769C140.355 333.035 140.201 333.377 140.158 333.793H137.966ZM159.181 331.217V333.025H156.205V342.385H153.965V333.025H150.989V331.217H159.181ZM165.807 333.393C166.479 333.393 167.076 333.542 167.599 333.841C168.122 334.129 168.527 334.561 168.815 335.137C169.114 335.702 169.263 336.385 169.263 337.185V342.385H167.023V337.489C167.023 336.785 166.847 336.246 166.495 335.873C166.143 335.489 165.663 335.297 165.055 335.297C164.436 335.297 163.946 335.489 163.583 335.873C163.231 336.246 163.055 336.785 163.055 337.489V342.385H160.815V330.545H163.055V334.625C163.343 334.241 163.727 333.942 164.207 333.729C164.687 333.505 165.22 333.393 165.807 333.393ZM173.633 334.897C173.921 334.427 174.294 334.059 174.753 333.793C175.222 333.526 175.756 333.393 176.353 333.393V335.745H175.761C175.057 335.745 174.524 335.91 174.161 336.241C173.809 336.571 173.633 337.147 173.633 337.969V342.385H171.393V333.521H173.633V334.897ZM186.102 337.761C186.102 338.081 186.08 338.369 186.038 338.625H179.558C179.611 339.265 179.835 339.766 180.23 340.129C180.624 340.491 181.11 340.673 181.686 340.673C182.518 340.673 183.11 340.315 183.462 339.601H185.878C185.622 340.454 185.131 341.158 184.406 341.713C183.68 342.257 182.79 342.529 181.734 342.529C180.88 342.529 180.112 342.342 179.43 341.969C178.758 341.585 178.23 341.046 177.846 340.353C177.472 339.659 177.286 338.859 177.286 337.953C177.286 337.035 177.472 336.23 177.846 335.537C178.219 334.843 178.742 334.31 179.414 333.937C180.086 333.563 180.859 333.377 181.734 333.377C182.576 333.377 183.328 333.558 183.99 333.921C184.662 334.283 185.179 334.801 185.542 335.473C185.915 336.134 186.102 336.897 186.102 337.761ZM183.782 337.121C183.771 336.545 183.563 336.086 183.158 335.745C182.752 335.393 182.256 335.217 181.67 335.217C181.115 335.217 180.646 335.387 180.262 335.729C179.888 336.059 179.659 336.523 179.574 337.121H183.782ZM191.129 342.529C190.403 342.529 189.753 342.401 189.177 342.145C188.601 341.878 188.142 341.521 187.801 341.073C187.47 340.625 187.289 340.129 187.257 339.585H189.513C189.555 339.926 189.721 340.209 190.009 340.433C190.307 340.657 190.675 340.769 191.113 340.769C191.539 340.769 191.87 340.683 192.105 340.513C192.35 340.342 192.473 340.123 192.473 339.857C192.473 339.569 192.323 339.355 192.025 339.217C191.737 339.067 191.273 338.907 190.633 338.737C189.971 338.577 189.427 338.411 189.001 338.241C188.585 338.07 188.222 337.809 187.913 337.457C187.614 337.105 187.465 336.63 187.465 336.033C187.465 335.542 187.603 335.094 187.881 334.689C188.169 334.283 188.574 333.963 189.097 333.729C189.63 333.494 190.254 333.377 190.969 333.377C192.025 333.377 192.867 333.643 193.497 334.177C194.126 334.699 194.473 335.409 194.537 336.305H192.393C192.361 335.953 192.211 335.675 191.945 335.473C191.689 335.259 191.342 335.153 190.905 335.153C190.499 335.153 190.185 335.227 189.961 335.377C189.747 335.526 189.641 335.734 189.641 336.001C189.641 336.299 189.79 336.529 190.089 336.689C190.387 336.838 190.851 336.993 191.481 337.153C192.121 337.313 192.649 337.478 193.065 337.649C193.481 337.819 193.838 338.086 194.137 338.449C194.446 338.801 194.606 339.27 194.617 339.857C194.617 340.369 194.473 340.827 194.185 341.233C193.907 341.638 193.502 341.958 192.969 342.193C192.446 342.417 191.833 342.529 191.129 342.529ZM201.448 333.393C202.12 333.393 202.717 333.542 203.24 333.841C203.762 334.129 204.168 334.561 204.456 335.137C204.754 335.702 204.904 336.385 204.904 337.185V342.385H202.664V337.489C202.664 336.785 202.488 336.246 202.136 335.873C201.784 335.489 201.304 335.297 200.696 335.297C200.077 335.297 199.586 335.489 199.224 335.873C198.872 336.246 198.696 336.785 198.696 337.489V342.385H196.456V330.545H198.696V334.625C198.984 334.241 199.368 333.942 199.848 333.729C200.328 333.505 200.861 333.393 201.448 333.393ZM210.97 342.529C210.116 342.529 209.348 342.342 208.666 341.969C207.983 341.585 207.444 341.046 207.05 340.353C206.666 339.659 206.474 338.859 206.474 337.953C206.474 337.046 206.671 336.246 207.066 335.553C207.471 334.859 208.02 334.326 208.714 333.953C209.407 333.569 210.18 333.377 211.034 333.377C211.887 333.377 212.66 333.569 213.354 333.953C214.047 334.326 214.591 334.859 214.986 335.553C215.391 336.246 215.594 337.046 215.594 337.953C215.594 338.859 215.386 339.659 214.97 340.353C214.564 341.046 214.01 341.585 213.306 341.969C212.612 342.342 211.834 342.529 210.97 342.529ZM210.97 340.577C211.375 340.577 211.754 340.481 212.106 340.289C212.468 340.086 212.756 339.787 212.97 339.393C213.183 338.998 213.29 338.518 213.29 337.953C213.29 337.11 213.066 336.465 212.618 336.017C212.18 335.558 211.642 335.329 211.002 335.329C210.362 335.329 209.823 335.558 209.386 336.017C208.959 336.465 208.746 337.11 208.746 337.953C208.746 338.795 208.954 339.446 209.37 339.905C209.796 340.353 210.33 340.577 210.97 340.577ZM219.477 330.545V342.385H217.237V330.545H219.477ZM221.114 337.921C221.114 337.025 221.29 336.23 221.642 335.537C222.005 334.843 222.495 334.31 223.114 333.937C223.733 333.563 224.421 333.377 225.178 333.377C225.754 333.377 226.303 333.505 226.826 333.761C227.349 334.006 227.765 334.337 228.074 334.753V330.545H230.346V342.385H228.074V341.073C227.797 341.51 227.407 341.862 226.906 342.129C226.405 342.395 225.823 342.529 225.162 342.529C224.415 342.529 223.733 342.337 223.114 341.953C222.495 341.569 222.005 341.03 221.642 340.337C221.29 339.633 221.114 338.827 221.114 337.921ZM228.09 337.953C228.09 337.409 227.983 336.945 227.77 336.561C227.557 336.166 227.269 335.867 226.906 335.665C226.543 335.451 226.154 335.345 225.738 335.345C225.322 335.345 224.938 335.446 224.586 335.649C224.234 335.851 223.946 336.15 223.722 336.545C223.509 336.929 223.402 337.387 223.402 337.921C223.402 338.454 223.509 338.923 223.722 339.329C223.946 339.723 224.234 340.027 224.586 340.241C224.949 340.454 225.333 340.561 225.738 340.561C226.154 340.561 226.543 340.459 226.906 340.257C227.269 340.043 227.557 339.745 227.77 339.361C227.983 338.966 228.09 338.497 228.09 337.953ZM105.023 362.497C104.244 362.497 103.54 362.363 102.911 362.097C102.292 361.83 101.801 361.446 101.439 360.945C101.076 360.443 100.889 359.851 100.879 359.169H103.279C103.311 359.627 103.471 359.99 103.759 360.257C104.057 360.523 104.463 360.657 104.975 360.657C105.497 360.657 105.908 360.534 106.207 360.289C106.505 360.033 106.655 359.702 106.655 359.297C106.655 358.966 106.553 358.694 106.351 358.481C106.148 358.267 105.892 358.102 105.583 357.985C105.284 357.857 104.868 357.718 104.335 357.569C103.609 357.355 103.017 357.147 102.559 356.945C102.111 356.731 101.721 356.417 101.391 356.001C101.071 355.574 100.911 355.009 100.911 354.305C100.911 353.643 101.076 353.067 101.407 352.577C101.737 352.086 102.201 351.713 102.799 351.457C103.396 351.19 104.079 351.057 104.847 351.057C105.999 351.057 106.932 351.339 107.647 351.905C108.372 352.459 108.772 353.238 108.847 354.241H106.383C106.361 353.857 106.196 353.542 105.887 353.297C105.588 353.041 105.188 352.913 104.687 352.913C104.249 352.913 103.897 353.025 103.631 353.249C103.375 353.473 103.247 353.798 103.247 354.225C103.247 354.523 103.343 354.774 103.535 354.977C103.737 355.169 103.983 355.329 104.271 355.457C104.569 355.574 104.985 355.713 105.519 355.873C106.244 356.086 106.836 356.299 107.295 356.513C107.753 356.726 108.148 357.046 108.479 357.473C108.809 357.899 108.975 358.459 108.975 359.153C108.975 359.75 108.82 360.305 108.51 360.817C108.201 361.329 107.748 361.739 107.151 362.049C106.553 362.347 105.844 362.497 105.023 362.497ZM112.053 352.465C111.658 352.465 111.327 352.342 111.061 352.097C110.805 351.841 110.677 351.526 110.677 351.153C110.677 350.779 110.805 350.47 111.061 350.225C111.327 349.969 111.658 349.841 112.053 349.841C112.447 349.841 112.773 349.969 113.029 350.225C113.295 350.47 113.429 350.779 113.429 351.153C113.429 351.526 113.295 351.841 113.029 352.097C112.773 352.342 112.447 352.465 112.053 352.465ZM113.157 353.521V362.385H110.917V353.521H113.157ZM118.842 353.377C119.503 353.377 120.084 353.51 120.586 353.777C121.087 354.033 121.482 354.369 121.77 354.785V353.521H124.026V362.449C124.026 363.27 123.86 364.001 123.53 364.641C123.199 365.291 122.703 365.803 122.042 366.177C121.38 366.561 120.58 366.753 119.642 366.753C118.383 366.753 117.348 366.459 116.538 365.873C115.738 365.286 115.284 364.486 115.178 363.473H117.402C117.519 363.878 117.77 364.198 118.154 364.433C118.548 364.678 119.023 364.801 119.578 364.801C120.228 364.801 120.756 364.603 121.162 364.209C121.567 363.825 121.77 363.238 121.77 362.449V361.073C121.482 361.489 121.082 361.835 120.57 362.113C120.068 362.39 119.492 362.529 118.842 362.529C118.095 362.529 117.412 362.337 116.794 361.953C116.175 361.569 115.684 361.03 115.322 360.337C114.97 359.633 114.794 358.827 114.794 357.921C114.794 357.025 114.97 356.23 115.322 355.537C115.684 354.843 116.17 354.31 116.778 353.937C117.396 353.563 118.084 353.377 118.842 353.377ZM121.77 357.953C121.77 357.409 121.663 356.945 121.45 356.561C121.236 356.166 120.948 355.867 120.586 355.665C120.223 355.451 119.834 355.345 119.418 355.345C119.002 355.345 118.618 355.446 118.266 355.649C117.914 355.851 117.626 356.15 117.402 356.545C117.188 356.929 117.082 357.387 117.082 357.921C117.082 358.454 117.188 358.923 117.402 359.329C117.626 359.723 117.914 360.027 118.266 360.241C118.628 360.454 119.012 360.561 119.418 360.561C119.834 360.561 120.223 360.459 120.586 360.257C120.948 360.043 121.236 359.745 121.45 359.361C121.663 358.966 121.77 358.497 121.77 357.953ZM131.125 353.393C132.181 353.393 133.035 353.729 133.685 354.401C134.336 355.062 134.661 355.99 134.661 357.185V362.385H132.421V357.489C132.421 356.785 132.245 356.246 131.893 355.873C131.541 355.489 131.061 355.297 130.453 355.297C129.835 355.297 129.344 355.489 128.981 355.873C128.629 356.246 128.453 356.785 128.453 357.489V362.385H126.213V353.521H128.453V354.625C128.752 354.241 129.131 353.942 129.589 353.729C130.059 353.505 130.571 353.393 131.125 353.393ZM136.215 357.921C136.215 357.025 136.391 356.23 136.743 355.537C137.106 354.843 137.592 354.31 138.2 353.937C138.818 353.563 139.506 353.377 140.264 353.377C140.925 353.377 141.501 353.51 141.992 353.777C142.493 354.043 142.893 354.379 143.192 354.785V353.521H145.448V362.385H143.192V361.089C142.904 361.505 142.504 361.851 141.992 362.129C141.49 362.395 140.909 362.529 140.248 362.529C139.501 362.529 138.818 362.337 138.2 361.953C137.592 361.569 137.106 361.03 136.743 360.337C136.391 359.633 136.215 358.827 136.215 357.921ZM143.192 357.953C143.192 357.409 143.085 356.945 142.872 356.561C142.658 356.166 142.37 355.867 142.008 355.665C141.645 355.451 141.256 355.345 140.84 355.345C140.424 355.345 140.04 355.446 139.688 355.649C139.336 355.851 139.048 356.15 138.824 356.545C138.61 356.929 138.504 357.387 138.504 357.921C138.504 358.454 138.61 358.923 138.824 359.329C139.048 359.723 139.336 360.027 139.688 360.241C140.05 360.454 140.434 360.561 140.84 360.561C141.256 360.561 141.645 360.459 142.008 360.257C142.37 360.043 142.658 359.745 142.872 359.361C143.085 358.966 143.192 358.497 143.192 357.953ZM150.243 355.361V359.649C150.243 359.947 150.313 360.166 150.451 360.305C150.601 360.433 150.846 360.497 151.187 360.497H152.227V362.385H150.819C148.931 362.385 147.987 361.467 147.987 359.633V355.361H146.931V353.521H147.987V351.329H150.243V353.521H152.227V355.361H150.243ZM162.206 353.521V362.385H159.95V361.265C159.662 361.649 159.284 361.953 158.814 362.177C158.356 362.39 157.854 362.497 157.31 362.497C156.617 362.497 156.004 362.353 155.47 362.065C154.937 361.766 154.516 361.334 154.206 360.769C153.908 360.193 153.758 359.51 153.758 358.721V353.521H155.998V358.401C155.998 359.105 156.174 359.649 156.526 360.033C156.878 360.406 157.358 360.593 157.966 360.593C158.585 360.593 159.07 360.406 159.422 360.033C159.774 359.649 159.95 359.105 159.95 358.401V353.521H162.206ZM166.657 354.897C166.945 354.427 167.318 354.059 167.777 353.793C168.246 353.526 168.779 353.393 169.377 353.393V355.745H168.785C168.081 355.745 167.547 355.91 167.185 356.241C166.833 356.571 166.657 357.147 166.657 357.969V362.385H164.417V353.521H166.657V354.897ZM179.125 357.761C179.125 358.081 179.104 358.369 179.061 358.625H172.581C172.635 359.265 172.859 359.766 173.253 360.129C173.648 360.491 174.133 360.673 174.709 360.673C175.541 360.673 176.133 360.315 176.485 359.601H178.901C178.645 360.454 178.155 361.158 177.429 361.713C176.704 362.257 175.813 362.529 174.757 362.529C173.904 362.529 173.136 362.342 172.453 361.969C171.781 361.585 171.253 361.046 170.869 360.353C170.496 359.659 170.309 358.859 170.309 357.953C170.309 357.035 170.496 356.23 170.869 355.537C171.243 354.843 171.765 354.31 172.437 353.937C173.109 353.563 173.883 353.377 174.757 353.377C175.6 353.377 176.352 353.558 177.013 353.921C177.685 354.283 178.203 354.801 178.565 355.473C178.939 356.134 179.125 356.897 179.125 357.761ZM176.805 357.121C176.795 356.545 176.587 356.086 176.181 355.745C175.776 355.393 175.28 355.217 174.693 355.217C174.139 355.217 173.669 355.387 173.285 355.729C172.912 356.059 172.683 356.523 172.597 357.121H176.805ZM188.429 362.497C187.65 362.497 186.946 362.363 186.317 362.097C185.698 361.83 185.207 361.446 184.845 360.945C184.482 360.443 184.295 359.851 184.285 359.169H186.685C186.717 359.627 186.877 359.99 187.165 360.257C187.463 360.523 187.869 360.657 188.381 360.657C188.903 360.657 189.314 360.534 189.613 360.289C189.911 360.033 190.061 359.702 190.061 359.297C190.061 358.966 189.959 358.694 189.757 358.481C189.554 358.267 189.298 358.102 188.989 357.985C188.69 357.857 188.274 357.718 187.741 357.569C187.015 357.355 186.423 357.147 185.965 356.945C185.517 356.731 185.127 356.417 184.797 356.001C184.477 355.574 184.317 355.009 184.317 354.305C184.317 353.643 184.482 353.067 184.813 352.577C185.143 352.086 185.607 351.713 186.205 351.457C186.802 351.19 187.485 351.057 188.253 351.057C189.405 351.057 190.338 351.339 191.053 351.905C191.778 352.459 192.178 353.238 192.253 354.241H189.789C189.767 353.857 189.602 353.542 189.293 353.297C188.994 353.041 188.594 352.913 188.093 352.913C187.655 352.913 187.303 353.025 187.037 353.249C186.781 353.473 186.653 353.798 186.653 354.225C186.653 354.523 186.749 354.774 186.941 354.977C187.143 355.169 187.389 355.329 187.677 355.457C187.975 355.574 188.391 355.713 188.925 355.873C189.65 356.086 190.242 356.299 190.701 356.513C191.159 356.726 191.554 357.046 191.885 357.473C192.215 357.899 192.381 358.459 192.381 359.153C192.381 359.75 192.226 360.305 191.917 360.817C191.607 361.329 191.154 361.739 190.557 362.049C189.959 362.347 189.25 362.497 188.429 362.497ZM193.747 357.953C193.747 357.035 193.933 356.235 194.307 355.553C194.68 354.859 195.197 354.326 195.859 353.953C196.52 353.569 197.277 353.377 198.131 353.377C199.229 353.377 200.136 353.654 200.851 354.209C201.576 354.753 202.061 355.521 202.307 356.513H199.891C199.763 356.129 199.544 355.83 199.235 355.617C198.936 355.393 198.563 355.281 198.115 355.281C197.475 355.281 196.968 355.515 196.595 355.985C196.221 356.443 196.035 357.099 196.035 357.953C196.035 358.795 196.221 359.451 196.595 359.921C196.968 360.379 197.475 360.609 198.115 360.609C199.021 360.609 199.613 360.203 199.891 359.393H202.307C202.061 360.353 201.576 361.115 200.851 361.681C200.125 362.246 199.219 362.529 198.131 362.529C197.277 362.529 196.52 362.342 195.859 361.969C195.197 361.585 194.68 361.051 194.307 360.369C193.933 359.675 193.747 358.87 193.747 357.953ZM208.94 353.393C209.612 353.393 210.209 353.542 210.732 353.841C211.254 354.129 211.66 354.561 211.948 355.137C212.246 355.702 212.396 356.385 212.396 357.185V362.385H210.156V357.489C210.156 356.785 209.98 356.246 209.628 355.873C209.276 355.489 208.796 355.297 208.188 355.297C207.569 355.297 207.078 355.489 206.716 355.873C206.364 356.246 206.188 356.785 206.188 357.489V362.385H203.948V350.545H206.188V354.625C206.476 354.241 206.86 353.942 207.34 353.729C207.82 353.505 208.353 353.393 208.94 353.393ZM222.766 357.761C222.766 358.081 222.745 358.369 222.702 358.625H216.222C216.275 359.265 216.499 359.766 216.894 360.129C217.289 360.491 217.774 360.673 218.35 360.673C219.182 360.673 219.774 360.315 220.126 359.601H222.542C222.286 360.454 221.795 361.158 221.07 361.713C220.345 362.257 219.454 362.529 218.398 362.529C217.545 362.529 216.777 362.342 216.094 361.969C215.422 361.585 214.894 361.046 214.51 360.353C214.137 359.659 213.95 358.859 213.95 357.953C213.95 357.035 214.137 356.23 214.51 355.537C214.883 354.843 215.406 354.31 216.078 353.937C216.75 353.563 217.523 353.377 218.398 353.377C219.241 353.377 219.993 353.558 220.654 353.921C221.326 354.283 221.843 354.801 222.206 355.473C222.579 356.134 222.766 356.897 222.766 357.761ZM220.446 357.121C220.435 356.545 220.227 356.086 219.822 355.745C219.417 355.393 218.921 355.217 218.334 355.217C217.779 355.217 217.31 355.387 216.926 355.729C216.553 356.059 216.323 356.523 216.238 357.121H220.446ZM235.409 353.393C236.497 353.393 237.372 353.729 238.033 354.401C238.705 355.062 239.041 355.99 239.041 357.185V362.385H236.801V357.489C236.801 356.795 236.625 356.267 236.273 355.905C235.921 355.531 235.441 355.345 234.833 355.345C234.225 355.345 233.74 355.531 233.377 355.905C233.025 356.267 232.849 356.795 232.849 357.489V362.385H230.609V357.489C230.609 356.795 230.433 356.267 230.081 355.905C229.729 355.531 229.249 355.345 228.641 355.345C228.022 355.345 227.532 355.531 227.169 355.905C226.817 356.267 226.641 356.795 226.641 357.489V362.385H224.401V353.521H226.641V354.593C226.929 354.219 227.297 353.926 227.745 353.713C228.204 353.499 228.705 353.393 229.249 353.393C229.942 353.393 230.561 353.542 231.105 353.841C231.649 354.129 232.07 354.545 232.369 355.089C232.657 354.577 233.073 354.166 233.617 353.857C234.172 353.547 234.769 353.393 235.409 353.393ZM249.407 357.761C249.407 358.081 249.385 358.369 249.343 358.625H242.863C242.916 359.265 243.14 359.766 243.535 360.129C243.929 360.491 244.415 360.673 244.991 360.673C245.823 360.673 246.415 360.315 246.767 359.601H249.183C248.927 360.454 248.436 361.158 247.711 361.713C246.985 362.257 246.095 362.529 245.039 362.529C244.185 362.529 243.417 362.342 242.735 361.969C242.063 361.585 241.535 361.046 241.151 360.353C240.777 359.659 240.59 358.859 240.59 357.953C240.59 357.035 240.777 356.23 241.151 355.537C241.524 354.843 242.047 354.31 242.719 353.937C243.391 353.563 244.164 353.377 245.039 353.377C245.881 353.377 246.633 353.558 247.295 353.921C247.967 354.283 248.484 354.801 248.847 355.473C249.22 356.134 249.407 356.897 249.407 357.761ZM247.087 357.121C247.076 356.545 246.868 356.086 246.463 355.745C246.057 355.393 245.561 355.217 244.975 355.217C244.42 355.217 243.951 355.387 243.567 355.729C243.193 356.059 242.964 356.523 242.879 357.121H247.087Z" fill="white"/>
<rect x="132" y="50.3848" width="86" height="28" rx="6" fill="#F5F7FD"/>
<path d="M146.962 68.3848H145.556L148.116 61.112H149.742L152.306 68.3848H150.9L148.958 62.6035H148.901L146.962 68.3848ZM147.008 65.5332H150.843V66.5914H147.008V65.5332ZM156.229 68.3848H153.764V61.112H156.278C157 61.112 157.621 61.2576 158.139 61.5488C158.66 61.8377 159.06 62.2531 159.339 62.7953C159.619 63.3374 159.759 63.9861 159.759 64.7413C159.759 65.4989 159.618 66.1499 159.336 66.6944C159.057 67.2389 158.653 67.6568 158.125 67.948C157.599 68.2392 156.967 68.3848 156.229 68.3848ZM155.082 67.2449H156.165C156.671 67.2449 157.094 67.1525 157.433 66.9679C157.771 66.7808 158.026 66.5027 158.196 66.1333C158.366 65.7617 158.452 65.2976 158.452 64.7413C158.452 64.185 158.366 63.7233 158.196 63.3564C158.026 62.987 157.773 62.7112 157.44 62.5289C157.108 62.3443 156.696 62.252 156.204 62.252H155.082V67.2449ZM162.093 61.112L163.985 66.8365H164.06L165.949 61.112H167.398L164.834 68.3848H163.208L160.647 61.112H162.093ZM168.94 68.3848H167.534L170.094 61.112H171.721L174.285 68.3848H172.879L170.936 62.6035H170.879L168.94 68.3848ZM168.987 65.5332H172.822V66.5914H168.987V65.5332ZM181.719 61.112V68.3848H180.547L177.121 63.4309H177.06V68.3848H175.743V61.112H176.922L180.345 66.0694H180.409V61.112H181.719ZM189.88 63.5659H188.552C188.514 63.3481 188.444 63.1551 188.342 62.987C188.241 62.8166 188.114 62.6722 187.962 62.5538C187.811 62.4354 187.638 62.3466 187.444 62.2875C187.252 62.2259 187.045 62.1951 186.822 62.1951C186.427 62.1951 186.077 62.2946 185.771 62.4934C185.466 62.6899 185.227 62.9788 185.054 63.3599C184.881 63.7387 184.795 64.2015 184.795 64.7484C184.795 65.3047 184.881 65.7735 185.054 66.1547C185.229 66.5334 185.468 66.8199 185.771 67.014C186.077 67.2058 186.426 67.3017 186.819 67.3017C187.037 67.3017 187.24 67.2733 187.43 67.2164C187.621 67.1573 187.793 67.0708 187.945 66.9572C188.098 66.8436 188.228 66.7039 188.332 66.5382C188.438 66.3725 188.512 66.1831 188.552 65.97L189.88 65.9771C189.83 66.3227 189.723 66.6471 189.557 66.9501C189.393 67.2531 189.179 67.5207 188.914 67.7527C188.649 67.9823 188.339 68.1622 187.984 68.2924C187.629 68.4203 187.234 68.4842 186.801 68.4842C186.162 68.4842 185.591 68.3362 185.089 68.0403C184.588 67.7444 184.192 67.3171 183.903 66.7583C183.615 66.1996 183.47 65.5297 183.47 64.7484C183.47 63.9648 183.616 63.2948 183.907 62.7385C184.198 62.1797 184.595 61.7524 185.097 61.4565C185.598 61.1606 186.167 61.0126 186.801 61.0126C187.206 61.0126 187.582 61.0694 187.93 61.1831C188.278 61.2967 188.589 61.4636 188.861 61.6838C189.133 61.9016 189.357 62.1691 189.532 62.4863C189.71 62.8012 189.826 63.161 189.88 63.5659ZM191.586 68.3848V61.112H196.317V62.2164H192.904V64.1909H196.072V65.2953H192.904V67.2804H196.345V68.3848H191.586ZM200.625 68.3848H198.161V61.112H200.675C201.397 61.112 202.017 61.2576 202.536 61.5488C203.057 61.8377 203.457 62.2531 203.736 62.7953C204.015 63.3374 204.155 63.9861 204.155 64.7413C204.155 65.4989 204.014 66.1499 203.732 66.6944C203.453 67.2389 203.049 67.6568 202.521 67.948C201.996 68.2392 201.364 68.3848 200.625 68.3848ZM199.478 67.2449H200.561C201.068 67.2449 201.49 67.1525 201.829 66.9679C202.168 66.7808 202.422 66.5027 202.593 66.1333C202.763 65.7617 202.848 65.2976 202.848 64.7413C202.848 64.185 202.763 63.7233 202.593 63.3564C202.422 62.987 202.17 62.7112 201.836 62.5289C201.505 62.3443 201.093 62.252 200.6 62.252H199.478V67.2449Z" fill="#2D2C35"/>
<path d="M204.194 211.771C204.194 234.219 200.251 254.53 193.885 269.22C190.702 276.565 186.919 282.493 182.73 286.582C178.542 290.669 173.963 292.907 169.177 292.907C164.391 292.907 159.812 290.669 155.624 286.582C151.435 282.493 147.652 276.565 144.469 269.22C138.103 254.53 134.16 234.219 134.16 211.771C134.16 189.322 138.103 169.011 144.469 154.322C147.652 146.976 151.435 141.048 155.624 136.959C159.812 132.872 164.391 130.635 169.177 130.635C173.963 130.635 178.542 132.872 182.73 136.959C186.919 141.048 190.702 146.976 193.885 154.322C200.251 169.011 204.194 189.322 204.194 211.771Z" stroke="url(#paint0_linear_2022_2712)" stroke-width="0.5"/>
<path d="M209.62 211.771C209.62 234.219 205.677 254.53 199.311 269.22C196.128 276.565 192.344 282.493 188.156 286.582C183.968 290.669 179.388 292.907 174.603 292.907C169.817 292.907 165.237 290.669 161.05 286.582C156.861 282.493 153.077 276.565 149.894 269.22C143.529 254.53 139.585 234.219 139.585 211.771C139.585 189.322 143.529 169.011 149.894 154.322C153.077 146.976 156.861 141.048 161.05 136.959C165.237 132.872 169.817 130.635 174.603 130.635C179.388 130.635 183.968 132.872 188.156 136.959C192.344 141.048 196.128 146.976 199.311 154.322C205.677 169.011 209.62 189.322 209.62 211.771Z" stroke="url(#paint1_linear_2022_2712)" stroke-width="0.5"/>
<path d="M215.045 211.771C215.045 234.219 211.102 254.53 204.737 269.22C201.554 276.565 197.77 282.493 193.581 286.582C189.394 290.669 184.814 292.907 180.028 292.907C175.242 292.907 170.663 290.669 166.475 286.582C162.286 282.493 158.503 276.565 155.32 269.22C148.954 254.53 145.011 234.219 145.011 211.771C145.011 189.322 148.954 169.011 155.32 154.322C158.503 146.976 162.286 141.048 166.475 136.959C170.663 132.872 175.242 130.635 180.028 130.635C184.814 130.635 189.394 132.872 193.581 136.959C197.77 141.048 201.554 146.976 204.737 154.322C211.102 169.011 215.045 189.322 215.045 211.771Z" stroke="url(#paint2_linear_2022_2712)" stroke-width="0.5"/>
<path d="M189.398 186.144C208.839 197.368 224.457 210.938 233.996 223.796C238.766 230.225 242.008 236.466 243.455 242.138C244.901 247.808 244.548 252.893 242.156 257.037C239.763 261.182 235.535 264.029 229.902 265.612C224.267 267.196 217.241 267.508 209.288 266.592C193.384 264.76 173.822 258.019 154.381 246.795C134.94 235.571 119.322 222.001 109.783 209.143C105.014 202.714 101.771 196.473 100.325 190.801C98.8788 185.131 99.2311 180.046 101.624 175.902C104.017 171.757 108.244 168.909 113.878 167.327C119.513 165.743 126.539 165.431 134.492 166.347C150.396 168.179 169.958 174.92 189.398 186.144Z" stroke="url(#paint3_linear_2022_2712)" stroke-width="0.5"/>
<path d="M192.111 181.445C211.552 192.669 227.17 206.24 236.709 219.097C241.479 225.526 244.721 231.767 246.168 237.439C247.614 243.109 247.261 248.194 244.868 252.339C242.475 256.483 238.248 259.331 232.615 260.914C226.98 262.497 219.954 262.809 212.001 261.893C196.096 260.061 176.535 253.321 157.094 242.097C137.653 230.872 122.035 217.302 112.496 204.444C107.726 198.015 104.484 191.774 103.038 186.102C101.592 180.432 101.944 175.347 104.337 171.203C106.73 167.058 110.957 164.211 116.591 162.628C122.226 161.045 129.252 160.732 137.204 161.648C153.109 163.48 172.671 170.221 192.111 181.445Z" stroke="url(#paint4_linear_2022_2712)" stroke-width="0.5"/>
<path d="M194.824 176.746C214.265 187.97 229.883 201.54 239.422 214.398C244.192 220.827 247.434 227.068 248.88 232.74C250.326 238.41 249.974 243.495 247.581 247.639C245.188 251.784 240.961 254.632 235.327 256.214C229.692 257.798 222.666 258.11 214.714 257.194C198.809 255.362 179.247 248.621 159.807 237.397C140.366 226.173 124.748 212.603 115.209 199.745C110.439 193.316 107.197 187.075 105.75 181.403C104.304 175.733 104.657 170.648 107.05 166.504C109.442 162.359 113.67 159.512 119.303 157.929C124.938 156.345 131.964 156.033 139.917 156.949C155.822 158.781 175.383 165.522 194.824 176.746Z" stroke="url(#paint5_linear_2022_2712)" stroke-width="0.5"/>
<path d="M159.807 186.144C140.366 197.368 124.748 210.938 115.209 223.796C110.44 230.225 107.197 236.466 105.751 242.138C104.305 247.808 104.657 252.893 107.05 257.037C109.443 261.182 113.67 264.029 119.304 265.612C124.939 267.196 131.965 267.508 139.918 266.592C155.822 264.76 175.384 258.019 194.824 246.795C214.265 235.571 229.883 222.001 239.422 209.143C244.192 202.714 247.434 196.473 248.881 190.801C250.327 185.131 249.974 180.046 247.582 175.902C245.189 171.757 240.961 168.909 235.328 167.327C229.693 165.743 222.667 165.431 214.714 166.347C198.81 168.179 179.248 174.92 159.807 186.144Z" stroke="url(#paint6_linear_2022_2712)" stroke-width="0.5"/>
<path d="M157.094 181.445C137.654 192.669 122.035 206.24 112.496 219.097C107.727 225.526 104.484 231.767 103.038 237.439C101.592 243.109 101.944 248.194 104.337 252.339C106.73 256.483 110.957 259.331 116.591 260.914C122.226 262.497 129.252 262.809 137.205 261.893C153.109 260.061 172.671 253.321 192.112 242.097C211.552 230.872 227.171 217.302 236.709 204.444C241.479 198.015 244.721 191.774 246.168 186.102C247.614 180.432 247.262 175.347 244.869 171.203C242.476 167.058 238.248 164.211 232.615 162.628C226.98 161.045 219.954 160.732 212.001 161.648C196.097 163.48 176.535 170.221 157.094 181.445Z" stroke="url(#paint7_linear_2022_2712)" stroke-width="0.5"/>
<path d="M154.382 176.746C134.941 187.97 119.323 201.54 109.784 214.398C105.014 220.827 101.772 227.068 100.325 232.74C98.8793 238.41 99.2316 243.495 101.625 247.639C104.017 251.784 108.245 254.632 113.878 256.214C119.513 257.798 126.539 258.11 134.492 257.194C150.396 255.362 169.958 248.621 189.399 237.397C208.84 226.173 224.458 212.603 233.997 199.745C238.767 193.316 242.009 187.075 243.455 181.403C244.901 175.733 244.549 170.648 242.156 166.504C239.763 162.359 235.536 159.512 229.902 157.929C224.267 156.345 217.241 156.033 209.288 156.949C193.384 158.781 173.822 165.522 154.382 176.746Z" stroke="url(#paint8_linear_2022_2712)" stroke-width="0.5"/>
<defs>
<linearGradient id="paint0_linear_2022_2712" x1="169.177" y1="130.385" x2="207.546" y2="309.383" gradientUnits="userSpaceOnUse">
<stop stop-color="white"/>
<stop offset="1" stop-color="white" stop-opacity="0"/>
</linearGradient>
<linearGradient id="paint1_linear_2022_2712" x1="174.603" y1="130.385" x2="212.972" y2="309.383" gradientUnits="userSpaceOnUse">
<stop stop-color="white"/>
<stop offset="1" stop-color="white" stop-opacity="0"/>
</linearGradient>
<linearGradient id="paint2_linear_2022_2712" x1="180.028" y1="130.385" x2="218.398" y2="309.383" gradientUnits="userSpaceOnUse">
<stop stop-color="white"/>
<stop offset="1" stop-color="white" stop-opacity="0"/>
</linearGradient>
<linearGradient id="paint3_linear_2022_2712" x1="101.408" y1="175.777" x2="275.609" y2="232.047" gradientUnits="userSpaceOnUse">
<stop stop-color="white"/>
<stop offset="1" stop-color="white" stop-opacity="0"/>
</linearGradient>
<linearGradient id="paint4_linear_2022_2712" x1="104.12" y1="171.078" x2="278.322" y2="227.348" gradientUnits="userSpaceOnUse">
<stop stop-color="white"/>
<stop offset="1" stop-color="white" stop-opacity="0"/>
</linearGradient>
<linearGradient id="paint5_linear_2022_2712" x1="106.833" y1="166.379" x2="281.035" y2="222.649" gradientUnits="userSpaceOnUse">
<stop stop-color="white"/>
<stop offset="1" stop-color="white" stop-opacity="0"/>
</linearGradient>
<linearGradient id="paint6_linear_2022_2712" x1="247.798" y1="175.777" x2="73.5963" y2="232.047" gradientUnits="userSpaceOnUse">
<stop stop-color="white"/>
<stop offset="1" stop-color="white" stop-opacity="0"/>
</linearGradient>
<linearGradient id="paint7_linear_2022_2712" x1="245.085" y1="171.078" x2="70.8834" y2="227.348" gradientUnits="userSpaceOnUse">
<stop stop-color="white"/>
<stop offset="1" stop-color="white" stop-opacity="0"/>
</linearGradient>
<linearGradient id="paint8_linear_2022_2712" x1="242.372" y1="166.379" x2="68.1707" y2="222.649" gradientUnits="userSpaceOnUse">
<stop stop-color="white"/>
<stop offset="1" stop-color="white" stop-opacity="0"/>
</linearGradient>
</defs>
</svg>
