<svg width="14" height="12" viewBox="0 0 14 12" fill="none" xmlns="http://www.w3.org/2000/svg">
<path d="M12.8826 1.29654L14 0.236148V0.00390625H10.1299L7.37188 6.81635L4.23463 0.00390625H0.176823V0.236148L1.48203 1.79523C1.60964 1.91045 1.67526 2.07968 1.65885 2.24891V8.37543C1.69896 8.59687 1.62786 8.82191 1.47109 8.98214L0 10.7519V10.9805H4.16719V10.7483L2.69792 8.98394C2.53932 8.82371 2.46276 8.60047 2.49557 8.37723V3.07707L6.15417 10.9841H6.57891L9.72526 3.07707V9.37641C9.72526 9.54204 9.72526 9.57625 9.61588 9.68607L8.48385 10.7717V11.0039H13.9745V10.7717L12.8826 9.71127C12.7878 9.63926 12.7385 9.51864 12.7586 9.40162V1.6062C12.7385 1.48918 12.7878 1.36855 12.8826 1.29654Z" fill="white"/>
</svg>
