<svg width="18" height="13" viewBox="0 0 18 13" fill="none" xmlns="http://www.w3.org/2000/svg">
<path d="M14.8211 1.09744C14.8165 1.08843 14.8087 1.08137 14.7994 1.07752C13.7143 0.579696 12.5693 0.224707 11.3929 0.0214396C11.3823 0.0194527 11.3712 0.0208861 11.3614 0.0255359C11.3516 0.0301857 11.3435 0.0378151 11.3382 0.0473393C11.1823 0.330326 11.0408 0.621 10.9141 0.918252C9.6461 0.725764 8.35626 0.725764 7.08822 0.918252C6.96076 0.620245 6.81696 0.329499 6.65746 0.0473393C6.65199 0.0380221 6.64384 0.0305683 6.63407 0.0259487C6.6243 0.0213292 6.61337 0.0197579 6.6027 0.0214396C5.42622 0.224281 4.28112 0.579296 3.19623 1.07755C3.18695 1.08149 3.17911 1.08821 3.17381 1.09679C1.00424 4.33676 0.409909 7.49706 0.701466 10.6182C0.702286 10.6259 0.704636 10.6333 0.708377 10.64C0.712117 10.6467 0.717171 10.6526 0.723239 10.6574C1.98656 11.5928 3.3996 12.3068 4.90206 12.7689C4.91264 12.772 4.92394 12.7719 4.93443 12.7685C4.94493 12.765 4.95412 12.7585 4.96077 12.7496C5.28347 12.3106 5.5694 11.8456 5.81566 11.3595C5.81904 11.3529 5.82098 11.3456 5.82133 11.3381C5.82168 11.3306 5.82045 11.3231 5.81771 11.3162C5.81497 11.3092 5.81078 11.3029 5.80543 11.2977C5.80008 11.2925 5.79368 11.2884 5.78666 11.2859C5.33576 11.1134 4.89925 10.9054 4.4812 10.6639C4.47361 10.6594 4.46723 10.6532 4.46263 10.6457C4.45803 10.6382 4.45535 10.6296 4.45483 10.6208C4.45431 10.612 4.45597 10.6033 4.45965 10.5952C4.46333 10.5872 4.46892 10.5803 4.47593 10.5749C4.5639 10.5092 4.65034 10.4415 4.73519 10.3718C4.74263 10.3657 4.75163 10.3618 4.76119 10.3605C4.77074 10.3592 4.78047 10.3606 4.78926 10.3645C7.52806 11.6145 10.4932 11.6145 13.1996 10.3645C13.2084 10.3603 13.2182 10.3587 13.2279 10.3599C13.2376 10.3611 13.2467 10.365 13.2543 10.3712C13.3393 10.4412 13.4259 10.5092 13.5142 10.5749C13.5213 10.5802 13.5269 10.5871 13.5307 10.5951C13.5344 10.6031 13.5361 10.6119 13.5357 10.6207C13.5352 10.6295 13.5326 10.638 13.528 10.6455C13.5235 10.6531 13.5172 10.6594 13.5096 10.6639C13.0925 10.9074 12.6556 11.1153 12.2035 11.2852C12.1965 11.2879 12.1901 11.292 12.1848 11.2973C12.1795 11.3026 12.1754 11.309 12.1727 11.316C12.17 11.323 12.1688 11.3305 12.1692 11.338C12.1696 11.3455 12.1716 11.3529 12.1751 11.3595C12.4254 11.8429 12.711 12.3073 13.0293 12.7489C13.0358 12.7579 13.0449 12.7647 13.0554 12.7683C13.066 12.7719 13.0774 12.772 13.088 12.7688C14.5932 12.3082 16.0087 11.5942 17.2736 10.6574C17.2797 10.6529 17.2849 10.6471 17.2886 10.6405C17.2924 10.6338 17.2947 10.6265 17.2953 10.6189C17.6444 7.01049 16.711 3.87608 14.8211 1.09744ZM6.22468 8.71776C5.4001 8.71776 4.72067 7.96106 4.72067 7.03175C4.72067 6.10243 5.38692 5.34568 6.22468 5.34568C7.06898 5.34568 7.74183 6.10901 7.72865 7.03169C7.72865 7.96106 7.06238 8.71776 6.22468 8.71776ZM11.7854 8.71776C10.9609 8.71776 10.2815 7.96106 10.2815 7.03175C10.2815 6.10243 10.9477 5.34568 11.7854 5.34568C12.6298 5.34568 13.3026 6.10901 13.2894 7.03169C13.2894 7.96106 12.6298 8.71776 11.7854 8.71776Z" fill="white"/>
</svg>
